# xmcd
#
# Track frame offsets:
#	150
#	10647
#	25852
#	40753
#	54590
#	64579
#	73436
#	93145
#	103138
#	117592
#	129974
#	141032
#	150352
#	159601
#	166319
#	175510
#	184083
#	193744
#	205047
#	210962
#	219957
#	227632
#	241217
#	249273
#	259169
#	272546
#	283937
#	295776
#	307268
#	317117
# Disc length: 4377 seconds
# Revision: 1
# Processed by: cddbd v1.5.2PL0 Copyright (c) Steve Scherf et al.
#
# Submitted via: libkcddb 0.31
#
DISCID=a511171e
DTITLE=The Carter Family - The Acme Sessions 1952-1956 Disc 2
DYEAR=2008
DGENRE=Country
TTITLE0=My Dixie Darling
TTITLE1=Wabash Cannonball
TTITLE2=Meeting In The Air
TTITLE3=Ship Ahoy
TTITLE4=Wade In The Water
TTITLE5=Jesus Hold My Hand
TTITLE6=Fate Of George Allen On Engine 143
TTITLE7=Anchored In Love
TTITLE8=Curtains Of Night
TTITLE9=Angel Band
TTITLE10=Redemption Song
TTITLE11=Gold Watch And Chain
TTITLE12=Worried Man Blues
TTITLE13=Wayworn Traveller
TTITLE14=Homestad On The Farm
TTITLE15=Grave On The Green Hillside
TTITLE16=Waves On The Sea
TTITLE17=Wildwood Flower
TTITLE18=Keep On The Sunny Side
TTITLE19=Motherless Children
TTITLE20=Two More Years (And I'll Be Free)
TTITLE21=Broken Engagement
TTITLE22=The Last Letter
TTITLE23=On The Sea Of Galilee
TTITLE24=Mrs. Jimmie Rodgers Visits The Carter Family 1
TTITLE25=Mrs. Jimmie Rodgers Visits The Carter Family 2
TTITLE26=I'm Thinking Tonight Of My Blue Eyes
TTITLE27=Midnight On The Stormy Deep
TTITLE28=Railroading On The Great Divide
TTITLE29=Wildwood Flower
EXTD=YEAR: 2008
EXTT0=
EXTT1=
EXTT2=
EXTT3=
EXTT4=
EXTT5=
EXTT6=
EXTT7=
EXTT8=
EXTT9=
EXTT10=
EXTT11=
EXTT12=
EXTT13=
EXTT14=
EXTT15=
EXTT16=
EXTT17=
EXTT18=
EXTT19=
EXTT20=
EXTT21=
EXTT22=
EXTT23=
EXTT24=
EXTT25=
EXTT26=
EXTT27=
EXTT28=
EXTT29=
PLAYORDER=
